<svg id="visual" viewBox="0 0 5000 300" width="5000" height="300" xmlns="http://www.w3.org/2000/svg" xmlns:xlink="http://www.w3.org/1999/xlink" version="1.1"><path d="M0 94L83.3 104C166.7 114 333.3 134 500 141.3C666.7 148.7 833.3 143.3 1000 141.7C1166.7 140 1333.3 142 1500 159C1666.7 176 1833.3 208 2000 226.2C2166.7 244.3 2333.3 248.7 2500 248C2666.7 247.3 2833.3 241.7 3000 213C3166.7 184.3 3333.3 132.7 3500 115.3C3666.7 98 3833.3 115 4000 113.2C4166.7 111.3 4333.3 90.7 4500 83.7C4666.7 76.7 4833.3 83.3 4916.7 86.7L5000 90L5000 301L4916.7 301C4833.3 301 4666.7 301 4500 301C4333.3 301 4166.7 301 4000 301C3833.3 301 3666.7 301 3500 301C3333.3 301 3166.7 301 3000 301C2833.3 301 2666.7 301 2500 301C2333.3 301 2166.7 301 2000 301C1833.3 301 1666.7 301 1500 301C1333.3 301 1166.7 301 1000 301C833.3 301 666.7 301 500 301C333.3 301 166.7 301 83.3 301L0 301Z" fill="#fed042" stroke-linecap="round" stroke-linejoin="miter"></path></svg>