<svg id="visual" viewBox="0 0 5000 300" width="5000" height="300" xmlns="http://www.w3.org/2000/svg" xmlns:xlink="http://www.w3.org/1999/xlink" version="1.1"><path d="M0 204L83.3 194C166.7 184 333.3 164 500 156.7C666.7 149.3 833.3 154.7 1000 156.3C1166.7 158 1333.3 156 1500 139C1666.7 122 1833.3 90 2000 71.8C2166.7 53.7 2333.3 49.3 2500 50C2666.7 50.7 2833.3 56.3 3000 85C3166.7 113.7 3333.3 165.3 3500 182.7C3666.7 200 3833.3 183 4000 184.8C4166.7 186.7 4333.3 207.3 4500 214.3C4666.7 221.3 4833.3 214.7 4916.7 211.3L5000 208L5000 0L4916.7 0C4833.3 0 4666.7 0 4500 0C4333.3 0 4166.7 0 4000 0C3833.3 0 3666.7 0 3500 0C3333.3 0 3166.7 0 3000 0C2833.3 0 2666.7 0 2500 0C2333.3 0 2166.7 0 2000 0C1833.3 0 1666.7 0 1500 0C1333.3 0 1166.7 0 1000 0C833.3 0 666.7 0 500 0C333.3 0 166.7 0 83.3 0L0 0Z" fill="#fed042" stroke-linecap="round" stroke-linejoin="miter"></path></svg>